# xmcd CD database file
#
# Track frame offsets:
#	225
#	50233
#	76671
#	109706
#	134029
#	173479
#	211986
#	228801
#	250349
#	279112
#	300270
#
# Disc length: 4217 seconds
#
# Revision: 0
# Processed by: cddbd v1.5.2PL0 Copyright (c) Steve Scherf et al.
# Submitted via: CDex 1.70beta2
#
DISCID=8810760b
DTITLE=Johnny Raducanu - Jazz made in Romania
DYEAR=2005
DGENRE=Jazz
TTITLE0=Tescani
TTITLE1=Alean
TTITLE2=Pastorala de toamna
TTITLE3=Mainile olarului
TTITLE4=Octombrie song
TTITLE5=Cantecul codrului
TTITLE6=Royal Garden Blues
TTITLE7=My funny Valentine
TTITLE8=Fusion
TTITLE9=Walkin Shoes
TTITLE10=C Jam Blues
EXTD=YEAR: 2005
EXTT0=
EXTT1=
EXTT2=
EXTT3=
EXTT4=
EXTT5=
EXTT6=
EXTT7=
EXTT8=
EXTT9=
EXTT10=
PLAYORDER=
